<svg width="640" height="532" viewBox="0 0 640 532" fill="none" xmlns="http://www.w3.org/2000/svg">
<g clip-path="url(#clip0_1_6)">
<path d="M8.65383 23.804C13.5577 2.83381 33.1731 1.23099e-06 46.4423 13.6023C88.2693 56.9593 140.192 60.3602 186.058 60.3602C228.75 60.3602 283.558 48.7414 330.288 48.7414C471.923 48.7414 569.999 118.453 569.999 257.31C569.999 270.345 569.132 283.381 567.69 291.315C565.671 302.934 552.113 308.035 541.154 298.116C416.827 186.181 286.154 270.628 186.058 169.462C177.404 160.96 167.885 168.328 171.346 177.396C220.096 304.351 415.096 234.356 543.463 351.109C573.75 378.88 632.02 448.025 632.02 487.414C632.02 513.486 613.849 532.474 591.636 532.474C580.386 532.474 570.289 526.806 565.962 512.921C550.961 466.445 537.693 431.305 514.038 398.433C485.192 429.888 427.211 472.679 329.423 472.679C130.385 472.679 0 330.989 0 116.469C0 90.9652 2.30769 52.7086 8.65383 23.804Z" fill="white"/>
</g>
<defs>
<clipPath id="clip0_1_6">
<rect width="640" height="532" fill="white"/>
</clipPath>
</defs>
</svg>
